{
  "accessors": [
    {
      "bufferView": 2,
      "componentType": 5126,
      "count": 24,
      "max": [
        50.545902252197266,
        30.878114700317383,
        54.670734405517578
      ],
      "min": [
        -15.257746696472168,
        12.331745147705078,
        18.575960159301758
      ],
      "type": "VEC3"
    },
    {
      "bufferView": 2,
      "byteOffset": 288,
      "componentType": 5126,
      "count": 24,
      "max": [
        1,
        0.92631077766418457,
        0.92631077766418457
      ],
      "min": [
        -1,
        -0.92631077766418457,
        -0.92631077766418457
      ],
      "type": "VEC3"
    },
    {
      "bufferView": 1,
      "componentType": 5126,
      "count": 24,
      "max": [
        1.8466269969940186,
        3.2901821136474609
      ],
      "min": [
        -1.8466269969940186,
        -3.2901821136474609
      ],
      "type": "VEC2"
    },
    {
      "bufferView": 0,
      "componentType": 5125,
      "count": 36,
      "max": [
        23
      ],
      "min": [
        0
      ],
      "type": "SCALAR"
    },
    {
      "bufferView": 2,
      "byteOffset": 576,
      "componentType": 5126,
      "count": 4,
      "max": [
        47.069587707519531,
        1.3285269737243652,
        17.243738174438477
      ],
      "min": [
        -12.77866268157959,
        1.3285269737243652,
        -57.704689025878906
      ],
      "type": "VEC3"
    },
    {
      "bufferView": 2,
      "byteOffset": 624,
      "componentType": 5126,
      "count": 4,
      "max": [
        0,
        -1,
        0
      ],
      "min": [
        0,
        -1,
        0
      ],
      "type": "VEC3"
    },
    {
      "bufferView": 1,
      "byteOffset": 192,
      "componentType": 5126,
      "count": 4,
      "max": [
        3.7474210262298584,
        2.9924130439758301
      ],
      "min": [
        -3.7474210262298584,
        -2.9924130439758301
      ],
      "type": "VEC2"
    },
    {
      "bufferView": 0,
      "byteOffset": 144,
      "componentType": 5125,
      "count": 6,
      "max": [
        3
      ],
      "min": [
        0
      ],
      "type": "SCALAR"
    },
    {
      "bufferView": 2,
      "byteOffset": 672,
      "componentType": 5126,
      "count": 700,
      "max": [
        51.656879425048828,
        54.488037109375,
        73.4735107421875
      ],
      "min": [
        -15.711092948913574,
        -19.317123413085938,
        -57.576004028320312
      ],
      "type": "VEC3"
    },
    {
      "bufferView": 2,
      "byteOffset": 9072,
      "componentType": 5126,
      "count": 700,
      "max": [
        1,
        1,
        1
      ],
      "min": [
        -1,
        -1,
        -1
      ],
      "type": "VEC3"
    },
    {
      "bufferView": 1,
      "byteOffset": 224,
      "componentType": 5126,
      "count": 700,
      "max": [
        11.325405120849609,
        5.9583950042724609
      ],
      "min": [
        -11.325405120849609,
        -6.0830888748168945
      ],
      "type": "VEC2"
    },
    {
      "bufferView": 0,
      "byteOffset": 168,
      "componentType": 5125,
      "count": 2493,
      "max": [
        699
      ],
      "min": [
        0
      ],
      "type": "SCALAR"
    },
    {
      "bufferView": 2,
      "byteOffset": 17472,
      "componentType": 5126,
      "count": 69,
      "max": [
        51.656879425048828,
        54.128036499023438,
        73.113822937011719
      ],
      "min": [
        -15.711092948913574,
        -19.317123413085938,
        -57.576004028320312
      ],
      "type": "VEC3"
    },
    {
      "bufferView": 2,
      "byteOffset": 18300,
      "componentType": 5126,
      "count": 69,
      "max": [
        1,
        0,
        0.98824983835220337
      ],
      "min": [
        -1,
        -0.15279996395111084,
        0
      ],
      "type": "VEC3"
    },
    {
      "bufferView": 1,
      "byteOffset": 5824,
      "componentType": 5126,
      "count": 69,
      "max": [
        6.5354251861572266,
        3.6222519874572754
      ],
      "min": [
        -6.5354251861572266,
        -3.6582520008087158
      ],
      "type": "VEC2"
    },
    {
      "bufferView": 0,
      "byteOffset": 10140,
      "componentType": 5125,
      "count": 189,
      "max": [
        68
      ],
      "min": [
        0
      ],
      "type": "SCALAR"
    },
    {
      "bufferView": 2,
      "byteOffset": 19128,
      "componentType": 5126,
      "count": 2455,
      "max": [
        16.218643188476562,
        5.9383039474487305,
        27.621204376220703
      ],
      "min": [
        -1.3383510112762451,
        -12.771081924438477,
        11.498476028442383
      ],
      "type": "VEC3"
    },
    {
      "bufferView": 2,
      "byteOffset": 48588,
      "componentType": 5126,
      "count": 2455,
      "max": [
        0.99987107515335083,
        0.99946862459182739,
        0.99907791614532471
      ],
      "min": [
        -0.99985611438751221,
        -0.9995231032371521,
        -0.9997822642326355
      ],
      "type": "VEC3"
    },
    {
      "bufferView": 1,
      "byteOffset": 6376,
      "componentType": 5126,
      "count": 2455,
      "max": [
        1.0988719463348389,
        1.113461971282959
      ],
      "min": [
        -0.89570999145507812,
        -0.87082797288894653
      ],
      "type": "VEC2"
    },
    {
      "bufferView": 0,
      "byteOffset": 10896,
      "componentType": 5125,
      "count": 13314,
      "max": [
        2454
      ],
      "min": [
        0
      ],
      "type": "SCALAR"
    },
    {
      "bufferView": 2,
      "byteOffset": 78048,
      "componentType": 5126,
      "count": 260,
      "max": [
        30.551101684570312,
        7.8264279365539551,
        23.00543212890625
      ],
      "min": [
        16.529695510864258,
        3.6528530120849609,
        17.209871292114258
      ],
      "type": "VEC3"
    },
    {
      "bufferView": 2,
      "byteOffset": 81168,
      "componentType": 5126,
      "count": 260,
      "max": [
        0.99975061416625977,
        0.97626113891601562,
        0.97607064247131348
      ],
      "min": [
        -0.99975061416625977,
        -0.97626113891601562,
        -0.97607064247131348
      ],
      "type": "VEC3"
    },
    {
      "bufferView": 1,
      "byteOffset": 26016,
      "componentType": 5126,
      "count": 260,
      "max": [
        0.25,
        0.47123900055885315
      ],
      "min": [
        -0.25,
        -0.47123900055885315
      ],
      "type": "VEC2"
    },
    {
      "bufferView": 0,
      "byteOffset": 64152,
      "componentType": 5125,
      "count": 744,
      "max": [
        259
      ],
      "min": [
        0
      ],
      "type": "SCALAR"
    },
    {
      "bufferView": 2,
      "byteOffset": 84288,
      "componentType": 5126,
      "count": 112,
      "max": [
        49.989913940429688,
        52.624645233154297,
        63.679607391357422
      ],
      "min": [
        -14.57331657409668,
        -17.349502563476562,
        -57.704689025878906
      ],
      "type": "VEC3"
    },
    {
      "bufferView": 2,
      "byteOffset": 85632,
      "componentType": 5126,
      "count": 112,
      "max": [
        1,
        1,
        1
      ],
      "min": [
        -1,
        -1,
        -1
      ],
      "type": "VEC3"
    },
    {
      "bufferView": 1,
      "byteOffset": 28096,
      "componentType": 5126,
      "count": 112,
      "max": [
        3.7474210262298584,
        3.7474210262298584
      ],
      "min": [
        -3.7474210262298584,
        -3.7474210262298584
      ],
      "type": "VEC2"
    },
    {
      "bufferView": 0,
      "byteOffset": 67128,
      "componentType": 5125,
      "count": 168,
      "max": [
        111
      ],
      "min": [
        0
      ],
      "type": "SCALAR"
    }
  ],
  "asset": {
    "extras": {
      "author": "Isaacson School at Colorado Mountain College (https://sketchfab.com/isaacsonschool)",
      "license": "CC-BY-4.0 (http://creativecommons.org/licenses/by/4.0/)",
      "source": "https://sketchfab.com/3d-models/ms-pac-man-arcade-24f9ac126fb24e27b98e9dc7db4a79f9",
      "title": "Ms Pac Man Arcade"
    },
    "generator": "Sketchfab-8.9.0",
    "version": "2.0"
  },
  "bufferViews": [
    {
      "buffer": 0,
      "byteLength": 67800,
      "byteOffset": 0,
      "name": "floatBufferViews",
      "target": 34963
    },
    {
      "buffer": 0,
      "byteLength": 28992,
      "byteOffset": 67800,
      "byteStride": 8,
      "name": "floatBufferViews",
      "target": 34962
    },
    {
      "buffer": 0,
      "byteLength": 86976,
      "byteOffset": 96792,
      "byteStride": 12,
      "name": "floatBufferViews",
      "target": 34962
    }
  ],
  "buffers": [
    {
      "byteLength": 183768,
      "uri": "scene.bin"
    }
  ],
  "materials": [
    {
      "doubleSided": true,
      "name": "Glass_Blue",
      "pbrMetallicRoughness": {
        "baseColorFactor": [
          0.0090329532326308814,
          0.0081827366090708176,
          0.053573780633981286,
          1
        ],
        "metallicFactor": 0,
        "roughnessFactor": 0.40000000000000002
      }
    },
    {
      "doubleSided": true,
      "name": "Paint_-_Enamel_Glossy_Black",
      "pbrMetallicRoughness": {
        "baseColorFactor": [
          0,
          0,
          0,
          1
        ],
        "metallicFactor": 0,
        "roughnessFactor": 0.59999999999999998
      }
    },
    {
      "doubleSided": true,
      "name": "Paint_-_Enamel_Glossy_Blue",
      "pbrMetallicRoughness": {
        "baseColorFactor": [
          0.0042298213806315774,
          0.0024336949951592789,
          0.37492435777739019,
          1
        ],
        "metallicFactor": 0,
        "roughnessFactor": 0.59999999999999998
      }
    },
    {
      "doubleSided": true,
      "name": "Paint_-_Enamel_Glossy_Red",
      "pbrMetallicRoughness": {
        "baseColorFactor": [
          0.59041562368513667,
          0.0092086299102842953,
          0.0092086299102842953,
          1
        ],
        "metallicFactor": 0,
        "roughnessFactor": 0.59999999999999998
      }
    },
    {
      "doubleSided": true,
      "name": "Paint_-_Enamel_Glossy_White",
      "pbrMetallicRoughness": {
        "baseColorFactor": [
          1,
          1,
          1,
          1
        ],
        "metallicFactor": 0,
        "roughnessFactor": 0.59999999999999998
      }
    },
    {
      "doubleSided": true,
      "name": "Plastic_-_Translucent_Glossy_Blue",
      "pbrMetallicRoughness": {
        "baseColorFactor": [
          0.021680898385429113,
          0.0058930355495657475,
          0.32061651769066518,
          1
        ],
        "metallicFactor": 0,
        "roughnessFactor": 0.59999999999999998
      }
    },
    {
      "doubleSided": true,
      "name": "Steel_-_Satin",
      "pbrMetallicRoughness": {
        "baseColorFactor": [
          0.42808864491572235,
          0.0095801879491240471,
          0.0095801879491240471,
          1
        ],
        "metallicFactor": 0,
        "roughnessFactor": 0.59999999999999998
      }
    }
  ],
  "meshes": [
    {
      "primitives": [
        {
          "attributes": {
            "NORMAL": 1,
            "POSITION": 0,
            "TEXCOORD_0": 2
          },
          "indices": 3,
          "material": 0,
          "mode": 4
        }
      ]
    },
    {
      "primitives": [
        {
          "attributes": {
            "NORMAL": 5,
            "POSITION": 4,
            "TEXCOORD_0": 6
          },
          "indices": 7,
          "material": 5,
          "mode": 4
        }
      ]
    },
    {
      "primitives": [
        {
          "attributes": {
            "NORMAL": 9,
            "POSITION": 8,
            "TEXCOORD_0": 10
          },
          "indices": 11,
          "material": 1,
          "mode": 4
        }
      ]
    },
    {
      "primitives": [
        {
          "attributes": {
            "NORMAL": 13,
            "POSITION": 12,
            "TEXCOORD_0": 14
          },
          "indices": 15,
          "material": 2,
          "mode": 4
        }
      ]
    },
    {
      "primitives": [
        {
          "attributes": {
            "NORMAL": 17,
            "POSITION": 16,
            "TEXCOORD_0": 18
          },
          "indices": 19,
          "material": 3,
          "mode": 4
        }
      ]
    },
    {
      "primitives": [
        {
          "attributes": {
            "NORMAL": 21,
            "POSITION": 20,
            "TEXCOORD_0": 22
          },
          "indices": 23,
          "material": 4,
          "mode": 4
        }
      ]
    },
    {
      "primitives": [
        {
          "attributes": {
            "NORMAL": 25,
            "POSITION": 24,
            "TEXCOORD_0": 26
          },
          "indices": 27,
          "material": 6,
          "mode": 4
        }
      ]
    }
  ],
  "nodes": [
    {
      "children": [
        1
      ],
      "name": "RootNode (gltf orientation matrix)",
      "rotation": [
        -0.70710678118654746,
        -0,
        -0,
        0.70710678118654757
      ]
    },
    {
      "children": [
        2
      ],
      "name": "RootNode (model correction matrix)"
    },
    {
      "children": [
        3,
        4,
        5,
        6,
        7,
        8,
        9
      ],
      "name": "Ms Pac Man v3.obj.cleaner.materialmerger.gles"
    },
    {
      "mesh": 0,
      "name": ""
    },
    {
      "mesh": 1,
      "name": ""
    },
    {
      "mesh": 2,
      "name": ""
    },
    {
      "mesh": 3,
      "name": ""
    },
    {
      "mesh": 4,
      "name": ""
    },
    {
      "mesh": 5,
      "name": ""
    },
    {
      "mesh": 6,
      "name": ""
    }
  ],
  "scene": 0,
  "scenes": [
    {
      "name": "OSG_Scene",
      "nodes": [
        0
      ]
    }
  ]
}

